<svg width="20" height="20" viewBox="0 0 20 20" fill="none" xmlns="http://www.w3.org/2000/svg">
<path d="M6.85693 2V5.25018" stroke="white" stroke-width="1.5" stroke-linecap="round"/>
<path d="M12.5996 2V5.25018" stroke="white" stroke-width="1.5" stroke-linecap="round"/>
<path d="M2.17016 14.5116C2.37668 16.354 3.87421 17.8169 5.72603 17.9061C7.00597 17.9677 8.31349 17.9997 9.73256 17.9997C11.1516 17.9997 12.4591 17.9677 13.7391 17.9061C15.5909 17.8169 17.0885 16.354 17.295 14.5116C17.4341 13.2709 17.5481 11.9988 17.5481 10.703C17.5481 9.40718 17.4341 8.13513 17.295 6.89439C17.0885 5.05197 15.5909 3.58911 13.7391 3.49993C12.4591 3.43829 11.1516 3.40625 9.73256 3.40625C8.31349 3.40625 7.00597 3.43829 5.72603 3.49993C3.87421 3.58911 2.37668 5.05197 2.17016 6.89439C2.03109 8.13513 1.91699 9.40718 1.91699 10.703C1.91699 11.9988 2.03109 13.2709 2.17016 14.5116Z" stroke="white" stroke-width="1.5"/>
<path d="M6.06805 8.92028C5.89132 8.92028 5.74805 8.77701 5.74805 8.60028C5.74805 8.42354 5.89132 8.28027 6.06805 8.28027" stroke="white" stroke-width="1.5"/>
<path d="M6.06836 8.92028C6.24509 8.92028 6.38836 8.77701 6.38836 8.60028C6.38836 8.42354 6.24509 8.28027 6.06836 8.28027" stroke="white" stroke-width="1.5"/>
<path d="M6.06805 13.1C5.89132 13.1 5.74805 12.9567 5.74805 12.78C5.74805 12.6032 5.89132 12.46 6.06805 12.46" stroke="white" stroke-width="1.5"/>
<path d="M6.06836 13.1C6.24509 13.1 6.38836 12.9567 6.38836 12.78C6.38836 12.6032 6.24509 12.46 6.06836 12.46" stroke="white" stroke-width="1.5"/>
<path d="M9.7326 8.92028C9.55587 8.92028 9.4126 8.77701 9.4126 8.60028C9.4126 8.42354 9.55587 8.28027 9.7326 8.28027" stroke="white" stroke-width="1.5"/>
<path d="M9.73291 8.92028C9.90964 8.92028 10.0529 8.77701 10.0529 8.60028C10.0529 8.42354 9.90964 8.28027 9.73291 8.28027" stroke="white" stroke-width="1.5"/>
<path d="M13.3972 8.92028C13.2204 8.92028 13.0771 8.77701 13.0771 8.60028C13.0771 8.42354 13.2204 8.28027 13.3972 8.28027" stroke="white" stroke-width="1.5"/>
<path d="M13.397 8.92028C13.5737 8.92028 13.7169 8.77701 13.7169 8.60028C13.7169 8.42354 13.5737 8.28027 13.397 8.28027" stroke="white" stroke-width="1.5"/>
</svg>
