<svg width="15" height="16" viewBox="0 0 15 16" fill="none" xmlns="http://www.w3.org/2000/svg">
<path d="M7.74984 2.5C5.68228 2.5 4 4.15159 4 6.18163C4 6.71115 4.11039 7.21672 4.32795 7.68442C5.26552 9.69861 7.06309 11.8252 7.59181 12.4288C7.63143 12.474 7.68917 12.5 7.74995 12.5C7.81072 12.5 7.86847 12.474 7.90808 12.4288C8.4366 11.8252 10.2342 9.69881 11.172 7.68442C11.3897 7.21672 11.5 6.71115 11.5 6.18163C11.4998 4.15159 9.81751 2.5 7.74984 2.5ZM7.74984 8.09389C6.67583 8.09389 5.80195 7.23596 5.80195 6.18153C5.80195 5.12701 6.67583 4.26907 7.74984 4.26907C8.82387 4.26907 9.69773 5.12701 9.69773 6.18153C9.69784 7.23596 8.82397 8.09389 7.74984 8.09389Z" fill="white"/>
</svg>
